<svg width="834" height="1020" viewBox="0 0 834 1020" fill="none" xmlns="http://www.w3.org/2000/svg">
<path fill-rule="evenodd" clip-rule="evenodd" d="M619.83 -208.726C731.051 -183.833 783.675 -52.0512 866.844 30.2979C944.511 107.199 1059.51 151.004 1092.53 259.315C1125.65 367.904 1060.47 480.151 1038.43 592.99C1014.63 714.801 1045.52 866.417 957.871 948.624C870.026 1031.02 734.875 975.934 619.598 985.822C517.267 994.6 413.058 1044.18 318.45 1003.47C223.328 962.545 168.3 860.333 112.921 767.82C58.469 676.855 2.65472 581.926 0.838386 472.889C-0.980461 363.701 53.2627 265.449 102.95 169.239C154.778 68.8851 207.166 -33.0223 295.463 -97.589C391.567 -167.865 507.427 -233.884 619.83 -208.726Z" fill="#0054B7"/>
</svg>
